<?xml version="1.0" encoding="UTF-8" standalone="no"?><!DOCTYPE svg PUBLIC "-//W3C//DTD SVG 1.1//EN" "http://www.w3.org/Graphics/SVG/1.1/DTD/svg11.dtd"><svg width="100%" height="100%" viewBox="0 0 277 318" version="1.1" xmlns="http://www.w3.org/2000/svg" xmlns:xlink="http://www.w3.org/1999/xlink" xml:space="preserve" style="fill-rule:evenodd;clip-rule:evenodd;stroke-linecap:round;stroke-linejoin:round;stroke-miterlimit:1.5;"><g id="ear-logo1white"><path d="M138.673,8.339l129.911,75.004l0,150.009l-129.911,75.004l-129.911,-75.004l0,-150.009l129.911,-75.004Z" style="fill:none;stroke:#000;stroke-width:15px;"/><g transform="matrix(5.03807,0,0,5.03807,-2150.19,-1466.18)"><text x="434.305px" y="327.503px" style="font-family:'Arial-BoldMT', 'Arial', sans-serif;font-weight:700;font-size:14.291px;fill:none;">&lt;</text><text x="434.305px" y="327.503px" style="font-family:'Arial-BoldMT', 'Arial', sans-serif;font-weight:700;font-size:14.291px;fill:#fff;stroke:#fff;stroke-width:0.2px;stroke-linecap:butt;stroke-miterlimit:1.41421;">&lt;</text></g><path d="M138.673,138.795l19.552,39.105l-39.105,0l19.553,-39.105Z" style="fill:none;stroke:#fff;stroke-width:3px;"/><g transform="matrix(1.15558,0,0,1.15558,-432.147,-272.259)"><text x="441.521px" y="390.045px" style="font-family:'Arial-BoldMT', 'Arial', sans-serif;font-weight:700;font-size:48px;fill:none;">E</text><text x="441.521px" y="390.045px" style="font-family:'Arial-BoldMT', 'Arial', sans-serif;font-weight:700;font-size:48px;fill:#fff;stroke:#fff;stroke-width:0.87px;stroke-linecap:butt;stroke-miterlimit:1.41421;">E</text></g><g transform="matrix(1.17397,0,0,1.17397,-395.12,-305.047)"><text x="472.893px" y="412.402px" style="font-family:'Arial-BoldMT', 'Arial', sans-serif;font-weight:700;font-size:48px;fill:none;">R</text><text x="472.893px" y="412.402px" style="font-family:'Arial-BoldMT', 'Arial', sans-serif;font-weight:700;font-size:48px;fill:#fff;stroke:#fff;stroke-width:0.85px;stroke-linecap:butt;stroke-miterlimit:1.41421;">R</text></g><g transform="matrix(1.82587,0,0,1.82587,-771.527,-403.651)"><text x="532.79px" y="322.428px" style="font-family:'Arial-BoldMT', 'Arial', sans-serif;font-weight:700;font-size:39.433px;fill:none;">&gt;</text><text x="532.79px" y="322.428px" style="font-family:'Arial-BoldMT', 'Arial', sans-serif;font-weight:700;font-size:39.433px;fill:#fff;stroke:#fff;stroke-width:0.55px;stroke-linecap:butt;stroke-miterlimit:1.41421;">&gt;</text></g></g></svg>
