<?xml version="1.0" encoding="UTF-8" standalone="no"?><!DOCTYPE svg PUBLIC "-//W3C//DTD SVG 1.1//EN" "http://www.w3.org/Graphics/SVG/1.1/DTD/svg11.dtd"><svg width="100%" height="100%" viewBox="0 0 139 158" version="1.1" xmlns="http://www.w3.org/2000/svg" xmlns:xlink="http://www.w3.org/1999/xlink" xml:space="preserve" style="fill-rule:evenodd;clip-rule:evenodd;stroke-linecap:round;stroke-linejoin:round;stroke-miterlimit:1.5;"><g id="sunsetlogo"><path d="M69,-1l69.282,40l0,80l-69.282,40l-69.282,-40l0,-80l69.282,-40Z" style="fill:#262626;stroke:#fff;stroke-width:3px;"/><path d="M40.468,110.661l0,2.854" style="fill:none;stroke:#fff;stroke-width:1px;"/><path d="M68.867,21.198l49.467,98.933l-98.933,0l49.466,-98.933Z" style="fill:none;stroke:#fff;stroke-width:3px;"/><path d="M40.468,104.568l3.047,6.093l-6.093,0l3.046,-6.093Z" style="fill:none;stroke:#fff;stroke-width:1px;"/><path d="M86.118,39.179l22.805,45.61l-45.61,0l22.805,-45.61Z" style="fill:none;stroke:#fff;stroke-width:3px;"/><path d="M37.422,103.413l4.202,8.403l-8.404,0l4.202,-8.403Z" style="fill:none;stroke:#fff;stroke-width:1px;"/><path d="M37.422,111.816l0,3.398" style="fill:none;stroke:#fff;stroke-width:1px;"/><path d="M26.791,39.126l7.39,4.267l0,8.533l-7.39,4.267l-7.39,-4.267l0,-8.533l7.39,-4.267Z" style="fill:none;stroke:#fff;stroke-width:3px;"/><path d="M32.247,38.903l3.649,-5.185" style="fill:none;stroke:#fff;stroke-width:1.5px;"/><path d="M17.763,61.715l3.669,-5.171" style="fill:none;stroke:#fff;stroke-width:1.5px;"/><path d="M10.918,47.747l5.324,0" style="fill:none;stroke:#fff;stroke-width:1.5px;"/><path d="M37.218,47.747l5.325,0" style="fill:none;stroke:#fff;stroke-width:1.5px;"/><path d="M32.213,56.6l3.465,5.333" style="fill:none;stroke:#fff;stroke-width:1.5px;"/><path d="M17.943,33.581l3.465,5.105" style="fill:none;stroke:#fff;stroke-width:1.5px;"/></g></svg>