<?xml version="1.0" encoding="UTF-8" standalone="no"?><!DOCTYPE svg PUBLIC "-//W3C//DTD SVG 1.1//EN" "http://www.w3.org/Graphics/SVG/1.1/DTD/svg11.dtd"><svg width="100%" height="100%" viewBox="0 0 164 164" version="1.1" xmlns="http://www.w3.org/2000/svg" xmlns:xlink="http://www.w3.org/1999/xlink" xml:space="preserve" style="fill-rule:evenodd;clip-rule:evenodd;stroke-linecap:round;stroke-linejoin:round;stroke-miterlimit:1.5;"><g id="sunsetoutlinelogo"><g id="sunsetlogo"><path d="M83.282,2l69.282,40l0,80l-69.282,40l-69.282,-40l0,-80l69.282,-40Z" style="fill:none;stroke:#262626;stroke-width:3px;"/><path d="M54.75,113.661l0,4.545" style="fill:none;stroke:#262626;stroke-width:1px;"/><path d="M83.149,24.198l49.467,98.933l-98.933,0l49.466,-98.933Z" style="fill:none;stroke:#262626;stroke-width:3px;"/><path d="M54.75,107.568l3.047,6.093l-6.093,0l3.046,-6.093Z" style="fill:none;stroke:#262626;stroke-width:1px;"/><path d="M100.4,42.179l22.805,45.61l-45.61,0l22.805,-45.61Z" style="fill:none;stroke:#262626;stroke-width:3px;"/><path d="M51.704,106.413l4.202,8.403l-8.404,0l4.202,-8.403Z" style="fill:none;stroke:#262626;stroke-width:1px;"/><path d="M51.704,114.816l0,3.398" style="fill:none;stroke:#262626;stroke-width:1px;"/><path d="M41.073,42.126l7.39,4.267l0,8.533l-7.39,4.267l-7.39,-4.267l0,-8.533l7.39,-4.267Z" style="fill:none;stroke:#262626;stroke-width:3px;"/><path d="M46.529,41.903l3.649,-5.185" style="fill:none;stroke:#262626;stroke-width:1.5px;"/><path d="M32.045,64.715l3.669,-5.171" style="fill:none;stroke:#262626;stroke-width:1.5px;"/><path d="M25.2,50.747l5.324,0" style="fill:none;stroke:#262626;stroke-width:1.5px;"/><path d="M51.5,50.747l5.325,0" style="fill:none;stroke:#262626;stroke-width:1.5px;"/><path d="M46.495,59.6l3.465,5.333" style="fill:none;stroke:#262626;stroke-width:1.5px;"/><path d="M32.226,36.581l3.464,5.105" style="fill:none;stroke:#262626;stroke-width:1.5px;"/></g></g></svg>